<svg xmlns="http://www.w3.org/2000/svg" width="38" height="27" viewBox="0 0 38 27">
  <defs>
    <style>
      .cls-1 {
        fill: #fff;
        fill-rule: evenodd;
      }
    </style>
  </defs>
  <path id="Forma_1" data-name="Forma 1" class="cls-1" d="M869.261,1937.37l14.57-.37a1.016,1.016,0,0,1,.3.05l5.614,2.2a0.848,0.848,0,0,1,.424.39h4.686a0.824,0.824,0,0,1,.35.07l3.5,1.76a0.844,0.844,0,0,1,.456.76v0.87h4.026a0.84,0.84,0,0,1,0,1.68h-4.017v0.2a0.868,0.868,0,0,1-.457.76l-3.178,1.59-0.318.15a0.86,0.86,0,0,1-.35.08h-4.58v0.04a0.856,0.856,0,0,1-.587.81l-5.614,1.74a1.894,1.894,0,0,1-.237.02h-1.385v1.92a1.709,1.709,0,0,1-1.695,1.71h-1.809v4.13h0.888a3.037,3.037,0,0,1,0,6.07H871.8a2.98,2.98,0,0,1-2.942-3.02,3.023,3.023,0,0,1,2.526-2.99v-7.81h-2.053a3.367,3.367,0,0,1-3.325-3.42v-5.92A3.391,3.391,0,0,1,869.261,1937.37Zm26.728,7.86,1.549-.78v-1.69l-1.549-.78v3.25Zm-5.7.65h4.075v-4.55h-4.075v4.55Zm-5.623,2.35,3.993-1.25v-6.36l-3.993-1.56v9.17Zm-3.895,3.89c0.016,0,.065,0,0.065-0.02v-1.92h-1.874v1.94h1.809Zm-10.276,8.87a1.352,1.352,0,0,0,.383.94,1.218,1.218,0,0,0,.921.39h8.051a1.312,1.312,0,0,0,1.3-1.32v-0.01a1.376,1.376,0,0,0-.383-0.95l-0.008-.01a1.257,1.257,0,0,0-.913-0.41h-1.7a0.807,0.807,0,0,1-.823-0.8v-8.64h-4.319v8.62a0.791,0.791,0,0,1-.758.82H871.8A1.346,1.346,0,0,0,870.491,1960.99Zm-2.86-14.26a1.715,1.715,0,0,0,1.662,1.76h13.74v-9.79l-13.732.36a1.758,1.758,0,0,0-1.67,1.78v5.89Zm2.933-5.85a0.831,0.831,0,0,1,.815.84v4.13a0.815,0.815,0,1,1-1.629,0v-4.13A0.831,0.831,0,0,1,870.564,1940.88Zm2.608,0a0.832,0.832,0,0,1,.815.84v4.13a0.816,0.816,0,1,1-1.63,0v-4.13A0.832,0.832,0,0,1,873.172,1940.88Zm2.526,0a0.831,0.831,0,0,1,.815.84v4.13a0.816,0.816,0,1,1-1.63,0v-4.13A0.832,0.832,0,0,1,875.7,1940.88Z" transform="translate(-866 -1937)"/>
</svg>
